STARTFONT 2.1
FONT -ibm-courier-bold-o-normal--24-240-100-100-m-168-iso8859-2
SIZE 24 100 100
FONTBOUNDINGBOX 28 34 -2 -5
COMMENT $Header: courBO24.bdf,v 1.1 96/01/22 23:46:54 peterlin Exp $
COMMENT 
COMMENT Copyright International Business Machines,Corp. 1991
COMMENT IBM Courier is a Trademark of the IBM Corporation.
COMMENT 
COMMENT Automatic rendering from Adobe Type 1 outline:
COMMENT Primoz Peterlin <primoz.peterlin@biofiz.mf.uni-lj.si>
COMMENT courbi.pfa rendered at 24.000000 points
COMMENT Checksum eb69a063
STARTPROPERTIES 3
FONT_ASCENT 28
FONT_DESCENT 5
DEFAULT_CHAR 32
ENDPROPERTIES
CHARS 191
STARTCHAR space
ENCODING 32
SWIDTH 597 0
DWIDTH 20 0
BBX 0 0 0 1
BITMAP
ENDCHAR
STARTCHAR exclam
ENCODING 33
SWIDTH 597 0
DWIDTH 20 0
BBX 9 19 7 1
BITMAP
0780
0780
0700
0f00
0f00
0f00
0e00
0e00
0e00
1e00
1c00
1c00
1c00
0000
3800
7c00
fc00
fc00
7800
ENDCHAR
STARTCHAR quotedbl
ENCODING 34
SWIDTH 597 0
DWIDTH 20 0
BBX 12 10 7 10
BITMAP
3cf0
3cf0
7df0
79e0
79e0
79e0
79e0
f3c0
f3c0
f3c0
ENDCHAR
STARTCHAR numbersign
ENCODING 35
SWIDTH 597 0
DWIDTH 20 0
BBX 20 24 2 -1
BITMAP
00e0e0
01e0c0
01c1c0
01c1c0
01c1c0
0383c0
038380
3ffff0
3ffff0
3fffe0
070700
070700
0e0e00
0e0e00
7fffc0
ffffc0
ffffc0
1c1c00
1c1c00
3c1c00
383800
383800
383800
707800
ENDCHAR
STARTCHAR dollar
ENCODING 36
SWIDTH 597 0
DWIDTH 20 0
BBX 17 26 3 -3
BITMAP
003800
003000
003000
003900
03ff80
07ff00
0f6700
1e6700
1ce600
1ce000
1ec000
0fe000
07f800
01fc00
01de00
118e00
718e00
719e00
7bbc00
7ff800
fff000
6fc000
030000
070000
060000
060000
ENDCHAR
STARTCHAR percent
ENCODING 37
SWIDTH 597 0
DWIDTH 20 0
BBX 16 21 4 1
BITMAP
0f00
3f80
7fc0
71c0
e1c0
e1c0
e380
ff83
7f0f
3c7e
03f0
0f80
7c7c
60fe
01ff
03c7
0387
038f
03fe
01fc
00f8
ENDCHAR
STARTCHAR ampersand
ENCODING 38
SWIDTH 597 0
DWIDTH 20 0
BBX 15 19 4 1
BITMAP
01fc
03fc
07f8
0f38
0e08
0e00
0e00
0e00
0700
1f1e
3f9c
7bbc
e3f8
e1f0
e1f0
e3e0
7ff8
7f78
3c70
ENDCHAR
STARTCHAR quoteright
ENCODING 39
SWIDTH 597 0
DWIDTH 20 0
BBX 10 9 7 11
BITMAP
0f80
0f80
1f00
1e00
3e00
3c00
7800
7800
f000
ENDCHAR
STARTCHAR parenleft
ENCODING 40
SWIDTH 597 0
DWIDTH 20 0
BBX 11 25 10 -2
BITMAP
01c0
03c0
0780
0700
0f00
1e00
1c00
3c00
3800
7800
7000
7000
f000
e000
e000
e000
e000
e000
e000
f000
7000
7000
7000
7800
3800
ENDCHAR
STARTCHAR parenright
ENCODING 41
SWIDTH 597 0
DWIDTH 20 0
BBX 10 25 3 -2
BITMAP
0700
0380
0380
0380
03c0
01c0
01c0
01c0
01c0
01c0
01c0
01c0
01c0
03c0
0380
0380
0700
0700
0e00
0e00
1c00
3c00
3800
7000
e000
ENDCHAR
STARTCHAR asterisk
ENCODING 42
SWIDTH 597 0
DWIDTH 20 0
BBX 14 13 6 7
BITMAP
03c0
03c0
0380
6398
7ffc
fffc
7ff8
0f80
1fc0
3fc0
79e0
71c0
2080
ENDCHAR
STARTCHAR plus
ENCODING 43
SWIDTH 597 0
DWIDTH 20 0
BBX 16 16 4 3
BITMAP
0380
0380
0380
0380
0380
0380
ffff
ffff
ffff
0380
0380
0380
0380
0380
0380
0380
ENDCHAR
STARTCHAR comma
ENCODING 44
SWIDTH 597 0
DWIDTH 20 0
BBX 10 9 4 -2
BITMAP
07c0
0f80
1f00
1f00
3e00
3c00
7800
7800
f000
ENDCHAR
STARTCHAR minus
ENCODING 45
SWIDTH 597 0
DWIDTH 20 0
BBX 16 3 4 10
BITMAP
ffff
ffff
ffff
ENDCHAR
STARTCHAR period
ENCODING 46
SWIDTH 597 0
DWIDTH 20 0
BBX 6 6 7 1
BITMAP
38
fc
fc
fc
f8
20
ENDCHAR
STARTCHAR slash
ENCODING 47
SWIDTH 597 0
DWIDTH 20 0
BBX 21 28 1 -3
BITMAP
000030
000078
000070
0000e0
0001e0
0001c0
000380
000700
000700
000e00
001c00
001c00
003800
007000
007000
00e000
01c000
01c000
038000
070000
0f0000
0e0000
1c0000
3c0000
380000
700000
e00000
600000
ENDCHAR
STARTCHAR zero
ENCODING 48
SWIDTH 597 0
DWIDTH 20 0
BBX 14 21 5 1
BITMAP
03e0
07f8
0ff8
1e3c
3c1c
381c
381c
701c
701c
701c
f03c
e038
e038
e038
e070
e070
e0f0
f1e0
7fc0
7f80
3e00
ENDCHAR
STARTCHAR one
ENCODING 49
SWIDTH 597 0
DWIDTH 20 0
BBX 15 21 3 1
BITMAP
0038
01f8
07f8
0ff8
0e38
0870
0070
0070
0070
00e0
00e0
00e0
00e0
01e0
01c0
01c0
01c0
03c0
fffe
fffe
fffe
ENDCHAR
STARTCHAR two
ENCODING 50
SWIDTH 597 0
DWIDTH 20 0
BBX 17 21 2 1
BITMAP
007c00
01fe00
07ff00
0f8780
0e0380
0e0380
000380
000380
000700
000f00
001e00
003c00
00f800
01f000
03c000
0f8e00
1f0e00
3c0e00
7ffc00
fffc00
fffc00
ENDCHAR
STARTCHAR three
ENCODING 51
SWIDTH 597 0
DWIDTH 20 0
BBX 16 21 2 1
BITMAP
00f8
03fe
0fff
070f
0407
0007
0007
000e
003e
01fc
01f8
01fc
001e
000e
000e
000e
001c
603c
7ff8
7ff0
0fc0
ENDCHAR
STARTCHAR four
ENCODING 52
SWIDTH 597 0
DWIDTH 20 0
BBX 15 21 3 1
BITMAP
001e
003e
007c
007c
00fc
01dc
03b8
0738
0e38
1e38
1c38
3870
7070
fffe
fffe
fffe
0060
00e0
0ffc
1ffc
1ff8
ENDCHAR
STARTCHAR five
ENCODING 53
SWIDTH 597 0
DWIDTH 20 0
BBX 18 21 2 1
BITMAP
03ffc0
03ffc0
07ff80
070000
070000
060000
060000
0ff800
0ffc00
0ffe00
0f1f00
0c0f00
000700
000700
000700
000f00
000e00
203c00
7ffc00
7ff000
0fc000
ENDCHAR
STARTCHAR six
ENCODING 54
SWIDTH 597 0
DWIDTH 20 0
BBX 17 21 4 1
BITMAP
003f80
00ff00
03ff00
07c000
0f0000
1e0000
1c0000
380000
3be000
7ff000
7ff800
7c3c00
f01c00
f01c00
e01c00
e03c00
e03800
f0f800
7ff000
3fc000
1f8000
ENDCHAR
STARTCHAR seven
ENCODING 55
SWIDTH 597 0
DWIDTH 20 0
BBX 15 21 7 1
BITMAP
7ffe
7ffe
7ffe
601c
e038
e038
0070
0070
00e0
01e0
01c0
03c0
0380
0780
0700
0e00
1e00
1c00
3c00
3800
7800
ENDCHAR
STARTCHAR eight
ENCODING 56
SWIDTH 597 0
DWIDTH 20 0
BBX 15 21 4 1
BITMAP
01f0
07fc
0ffc
1e0e
1c0e
380e
380e
381e
3c3c
1ff8
1ff0
3ff8
7c3c
701c
e01c
e01c
e038
f078
7ff0
7fe0
1f80
ENDCHAR
STARTCHAR nine
ENCODING 57
SWIDTH 597 0
DWIDTH 20 0
BBX 16 21 3 1
BITMAP
00f8
03fc
07fe
0f0f
0e07
1e07
1c07
1c07
1c0f
1c1f
1e3e
0ffe
07fe
03ec
001c
0038
0070
00f0
7fc0
ff80
fe00
ENDCHAR
STARTCHAR colon
ENCODING 58
SWIDTH 597 0
DWIDTH 20 0
BBX 8 14 7 1
BITMAP
0e
3f
3f
3f
3e
08
00
00
38
fc
fc
fc
f8
20
ENDCHAR
STARTCHAR semicolon
ENCODING 59
SWIDTH 597 0
DWIDTH 20 0
BBX 11 17 4 -2
BITMAP
01c0
07e0
07e0
07e0
07c0
0100
0000
0000
07c0
0780
0f00
0f00
1e00
3c00
3c00
7800
7800
ENDCHAR
STARTCHAR less
ENCODING 60
SWIDTH 597 0
DWIDTH 20 0
BBX 18 16 2 3
BITMAP
000080
000380
001fc0
007f00
01fc00
07f000
1fc000
7e0000
7f0000
1fc000
03f000
00fc00
003f00
000fc0
0003c0
000080
ENDCHAR
STARTCHAR equal
ENCODING 61
SWIDTH 597 0
DWIDTH 20 0
BBX 16 9 4 7
BITMAP
ffff
ffff
ffff
0000
0000
0000
ffff
ffff
ffff
ENDCHAR
STARTCHAR greater
ENCODING 62
SWIDTH 597 0
DWIDTH 20 0
BBX 18 16 3 3
BITMAP
600000
780000
fe0000
7f8000
0ff000
03fc00
007f00
001fc0
007f00
01fc00
07f000
1fc000
7f0000
f80000
600000
400000
ENDCHAR
STARTCHAR question
ENCODING 63
SWIDTH 597 0
DWIDTH 20 0
BBX 13 19 6 1
BITMAP
1fc0
7ff0
7ff8
f038
e038
0038
0078
00f0
07e0
1fc0
1f00
1c00
3c00
0000
3800
7c00
fc00
fc00
7800
ENDCHAR
STARTCHAR at
ENCODING 64
SWIDTH 597 0
DWIDTH 20 0
BBX 20 19 2 1
BITMAP
00ff00
03ff80
0fffe0
1f81e0
3e3ef0
38fe70
79fe70
73dc70
f79c70
e738e0
ee79e0
efffc0
efff80
e79e00
700000
780300
3fff00
1ffe00
07f000
ENDCHAR
STARTCHAR A
ENCODING 65
SWIDTH 597 0
DWIDTH 20 0
BBX 20 19 0 1
BITMAP
01fe00
01fe00
01fe00
003f00
003700
007700
00e700
00e700
01c380
03c380
03ff80
07ff80
07ff80
0e01c0
1c01c0
1c01c0
ff0ff0
ff0ff0
ff0ff0
ENDCHAR
STARTCHAR B
ENCODING 66
SWIDTH 597 0
DWIDTH 20 0
BBX 19 19 1 1
BITMAP
0fff80
0fffc0
1fffe0
0380e0
0380e0
0700e0
0701c0
0703c0
07ff80
07ff00
0fff80
0e03c0
0e01c0
0e01c0
1c01c0
1c0380
ffff00
fffe00
fff800
ENDCHAR
STARTCHAR C
ENCODING 67
SWIDTH 597 0
DWIDTH 20 0
BBX 20 19 3 1
BITMAP
00fc40
03fe60
07ffe0
1f83c0
3e01c0
3c01c0
7801c0
700000
f00000
e00000
e00000
e00000
e00000
e00000
f00200
780f00
3fff80
1ffe00
07f800
ENDCHAR
STARTCHAR D
ENCODING 68
SWIDTH 597 0
DWIDTH 20 0
BBX 20 19 1 1
BITMAP
0fff00
1fffc0
1fffe0
0700e0
0700f0
070070
070070
070070
0e0070
0e00f0
0e00e0
0e00e0
1c01c0
1c03c0
1c0380
1c0f80
ffff00
fffc00
fff000
ENDCHAR
STARTCHAR E
ENCODING 69
SWIDTH 597 0
DWIDTH 20 0
BBX 21 19 1 1
BITMAP
0ffff8
0ffff8
0ffff8
038070
038070
038770
070e70
07fe00
07fe00
07fe00
070e00
0f1c00
0e1ce0
0e01c0
0e01c0
1c01c0
ffffc0
ffffc0
ffff80
ENDCHAR
STARTCHAR F
ENCODING 70
SWIDTH 597 0
DWIDTH 20 0
BBX 20 19 2 1
BITMAP
0ffff0
0ffff0
0ffff0
038060
0300e0
030ee0
070ce0
07fc00
07fc00
07fc00
0e1c00
0e1800
0e1800
0c0000
0c0000
1c0000
ffc000
ffc000
ffc000
ENDCHAR
STARTCHAR G
ENCODING 71
SWIDTH 597 0
DWIDTH 20 0
BBX 19 19 3 1
BITMAP
00fc40
03fee0
0fffe0
1f03c0
1e01c0
3801c0
7801c0
700100
700000
e00000
e07fc0
e07fc0
e0ffc0
e00780
e00700
780700
7fff00
3ffc00
0fe000
ENDCHAR
STARTCHAR H
ENCODING 72
SWIDTH 597 0
DWIDTH 20 0
BBX 22 19 1 1
BITMAP
0ff3fc
0fe3fc
0fe3fc
0380e0
0300e0
0700c0
0701c0
0701c0
07ffc0
0fffc0
0fff80
0e0380
0e0380
0c0380
1c0300
1c0700
ff1fc0
ff1fc0
ff3fc0
ENDCHAR
STARTCHAR I
ENCODING 73
SWIDTH 597 0
DWIDTH 20 0
BBX 18 19 3 1
BITMAP
0fffc0
0fffc0
0fffc0
007000
006000
00e000
00e000
00e000
00e000
00c000
01c000
01c000
01c000
018000
038000
038000
fffc00
fffc00
fffc00
ENDCHAR
STARTCHAR J
ENCODING 74
SWIDTH 597 0
DWIDTH 20 0
BBX 21 19 2 1
BITMAP
00fff8
00fff8
00fff8
000700
000700
000700
000700
000600
000e00
700e00
700e00
700c00
600c00
601c00
e01c00
f03800
fff800
3ff000
0fc000
ENDCHAR
STARTCHAR K
ENCODING 75
SWIDTH 597 0
DWIDTH 20 0
BBX 21 19 2 1
BITMAP
0ff7f8
0ff7f8
0fe7f8
0387c0
038f80
031e00
077c00
07f000
07e000
07f000
077800
0e3800
0e3800
0e1c00
0c1c00
1c0e00
ff8fc0
ff07c0
ff07c0
ENDCHAR
STARTCHAR L
ENCODING 76
SWIDTH 597 0
DWIDTH 20 0
BBX 19 19 1 1
BITMAP
0ffc00
0ffc00
0ffc00
018000
038000
038000
038000
038000
070000
070000
0700e0
0700e0
0601c0
0e01c0
0e01c0
0e01c0
ffff80
ffff80
ffff80
ENDCHAR
STARTCHAR M
ENCODING 77
SWIDTH 597 0
DWIDTH 20 0
BBX 24 19 0 1
BITMAP
0fe07f
0fe07f
0fe0ff
03e0f8
07e1f8
0773b8
0773b8
067738
0e7770
0e7e70
0e7c70
0c3c70
1c3870
1c38e0
1c00e0
3800e0
ff87f8
ff0ff8
ff0ff0
ENDCHAR
STARTCHAR N
ENCODING 78
SWIDTH 597 0
DWIDTH 20 0
BBX 23 19 0 1
BITMAP
0fc1fe
0fc1fe
1fe1fe
03e070
07e070
077070
077070
063060
0e38e0
0e38e0
0e18e0
0e1ce0
0c1cc0
1c0dc0
1c0fc0
1c0fc0
ff8780
ff0780
ff0780
ENDCHAR
STARTCHAR O
ENCODING 79
SWIDTH 597 0
DWIDTH 20 0
BBX 18 19 3 1
BITMAP
00fc00
07ff00
0fff80
1f0780
3c03c0
3801c0
7801c0
7001c0
f001c0
e001c0
e00380
e00380
e00780
e00f00
f01e00
783e00
7ff800
3ff000
0fc000
ENDCHAR
STARTCHAR P
ENCODING 80
SWIDTH 597 0
DWIDTH 20 0
BBX 19 19 2 1
BITMAP
0fff00
0fffc0
0fffc0
0381e0
0380e0
0380e0
0380e0
0301c0
0703c0
07ff80
07ff00
07fc00
0e0000
0e0000
0e0000
0e0000
7fe000
7fe000
7fe000
ENDCHAR
STARTCHAR Q
ENCODING 81
SWIDTH 597 0
DWIDTH 20 0
BBX 18 23 3 -3
BITMAP
00fc00
07ff00
0fff80
1f0780
3c03c0
3801c0
7801c0
7001c0
f001c0
e001c0
e00380
e00380
e00780
e00f00
f01f00
783e00
7ffc00
3ff000
1fc000
1f8400
3ffc00
7ffe00
60f800
ENDCHAR
STARTCHAR R
ENCODING 82
SWIDTH 597 0
DWIDTH 20 0
BBX 19 19 1 1
BITMAP
0fff80
0fffc0
1fffe0
0380e0
0380e0
0700e0
0701e0
0703c0
07ff80
07ff00
0ff800
0e3c00
0e1c00
0e1e00
1c0e00
1c0e00
ff8fe0
ff87e0
ff07e0
ENDCHAR
STARTCHAR S
ENCODING 83
SWIDTH 597 0
DWIDTH 20 0
BBX 19 19 2 1
BITMAP
00fcc0
03fee0
07ffe0
0f03c0
0e03c0
0e0380
0e0180
0f0000
07f800
03fe00
00fe00
000f00
700700
700700
700f00
781e00
fffe00
effc00
c7f000
ENDCHAR
STARTCHAR T
ENCODING 84
SWIDTH 597 0
DWIDTH 20 0
BBX 19 19 3 1
BITMAP
3fffe0
3fffe0
3fffe0
70e0e0
70e1c0
70e1c0
e0e1c0
e0e1c0
01c000
01c000
01c000
01c000
038000
038000
038000
038000
3ff800
7ff000
7ff000
ENDCHAR
STARTCHAR U
ENCODING 85
SWIDTH 597 0
DWIDTH 20 0
BBX 19 19 4 1
BITMAP
ff9fe0
ff9fe0
ffbfe0
380300
380700
380700
700700
700700
700e00
700e00
700e00
e00e00
e00c00
e01c00
e01c00
e07800
fff000
7fe000
1f8000
ENDCHAR
STARTCHAR V
ENCODING 86
SWIDTH 597 0
DWIDTH 20 0
BBX 21 19 3 1
BITMAP
ff87f8
ff8ff8
ff0ff8
1c01c0
1c0380
1c0380
1c0700
1c0e00
1e0e00
0e1c00
0e3c00
0e3800
0e7000
0ef000
0ee000
07c000
07c000
078000
070000
ENDCHAR
STARTCHAR W
ENCODING 87
SWIDTH 597 0
DWIDTH 20 0
BBX 21 19 3 1
BITMAP
ff07f8
ff07f8
ff07f8
3000e0
7061c0
70e1c0
71f1c0
71f380
73f380
737300
777700
7e7700
7e7e00
7c3e00
7c3e00
783c00
703c00
f03c00
e03800
ENDCHAR
STARTCHAR X
ENCODING 88
SWIDTH 597 0
DWIDTH 20 0
BBX 22 19 0 1
BITMAP
07f1fc
0ff3fc
0ff3fc
01c1e0
01e3c0
00e780
00ff00
007e00
007c00
007800
00fc00
01fe00
03ce00
078f00
0f0700
1e0780
ff9fe0
ff9fe0
ff1fe0
ENDCHAR
STARTCHAR Y
ENCODING 89
SWIDTH 597 0
DWIDTH 20 0
BBX 19 19 4 1
BITMAP
ff1fe0
ff1fe0
ff1fe0
1c0f00
1c1e00
1e1c00
0e3800
0e7000
07e000
07e000
03c000
038000
038000
070000
070000
070000
7fe000
7fe000
7fe000
ENDCHAR
STARTCHAR Z
ENCODING 90
SWIDTH 597 0
DWIDTH 20 0
BBX 18 19 2 1
BITMAP
0fffc0
0fffc0
0fffc0
0c0780
1c0f00
1c1e00
1c3c00
007800
00f000
01e000
03c000
078700
0f0700
1e0700
3c0700
780600
fffe00
fffe00
fffe00
ENDCHAR
STARTCHAR bracketleft
ENCODING 91
SWIDTH 597 0
DWIDTH 20 0
BBX 12 25 9 -2
BITMAP
07f0
07f0
07e0
0600
0e00
0e00
0e00
0c00
0c00
1c00
1c00
1c00
1800
3800
3800
3800
3800
3000
7000
7000
7000
7000
7e00
fe00
fe00
ENDCHAR
STARTCHAR backslash
ENCODING 92
SWIDTH 597 0
DWIDTH 20 0
BBX 9 29 7 -4
BITMAP
6000
e000
e000
6000
7000
7000
7000
3000
3800
3800
3800
1800
1c00
1c00
1c00
1c00
0c00
0e00
0e00
0e00
0600
0700
0700
0700
0300
0300
0380
0380
0100
ENDCHAR
STARTCHAR bracketright
ENCODING 93
SWIDTH 597 0
DWIDTH 20 0
BBX 12 25 3 -2
BITMAP
07f0
07f0
07e0
00e0
00e0
00e0
00e0
00c0
01c0
01c0
01c0
01c0
0180
0380
0380
0380
0300
0300
0700
0700
0700
0600
7e00
fe00
fe00
ENDCHAR
STARTCHAR asciicircum
ENCODING 94
SWIDTH 597 0
DWIDTH 20 0
BBX 16 14 4 6
BITMAP
07e0
07e0
07e0
0ff0
0e70
1e78
1e78
1c38
3c3c
383c
781e
781e
700e
f00f
ENDCHAR
STARTCHAR underscore
ENCODING 95
SWIDTH 597 0
DWIDTH 20 0
BBX 23 2 -2 -3
BITMAP
fffffe
fffffe
ENDCHAR
STARTCHAR quoteleft
ENCODING 96
SWIDTH 597 0
DWIDTH 20 0
BBX 10 9 7 11
BITMAP
03c0
0780
0780
0f00
1f00
1e00
3e00
7c00
7c00
ENDCHAR
STARTCHAR a
ENCODING 97
SWIDTH 597 0
DWIDTH 20 0
BBX 17 15 2 1
BITMAP
01fc00
0ffe00
0fff00
080700
000700
07ff00
1ffe00
3ffe00
7c0e00
f00e00
e01e00
e07c00
ffff80
7fff80
1f1f00
ENDCHAR
STARTCHAR b
ENCODING 98
SWIDTH 597 0
DWIDTH 20 0
BBX 20 21 0 1
BITMAP
0fc000
0fc000
0f8000
038000
038000
038000
039f00
077fc0
07ffe0
07e1e0
0780f0
070070
0e0070
0e0070
0e00f0
0e00e0
0e01e0
1f87c0
7fff80
ffff00
fcf800
ENDCHAR
STARTCHAR c
ENCODING 99
SWIDTH 597 0
DWIDTH 20 0
BBX 17 15 3 1
BITMAP
01f180
07ff80
1fff80
3e0700
780700
700700
f00000
e00000
e00000
e00000
e00400
701e00
7ffe00
3ff800
0fe000
ENDCHAR
STARTCHAR d
ENCODING 100
SWIDTH 597 0
DWIDTH 20 0
BBX 18 21 3 1
BITMAP
003fc0
003fc0
007fc0
000380
000380
000380
03f380
0ffb80
1fff00
3c1f00
780f00
700f00
e00e00
e00e00
e00e00
e01e00
e03e00
f07c00
7fff80
3fff80
1f9f00
ENDCHAR
STARTCHAR e
ENCODING 101
SWIDTH 597 0
DWIDTH 20 0
BBX 17 15 3 1
BITMAP
01f800
07fe00
1fff00
3e0f80
780780
700380
ffff80
ffff80
ffff80
e00000
f00200
f80f00
7fff00
3ffc00
0fe000
ENDCHAR
STARTCHAR f
ENCODING 102
SWIDTH 597 0
DWIDTH 20 0
BBX 19 21 2 1
BITMAP
003f80
00ffe0
00ffc0
01e000
01c000
01c000
1ffe00
1ffe00
1ffe00
038000
038000
070000
070000
070000
070000
0e0000
0e0000
0e0000
fff800
fff800
fff000
ENDCHAR
STARTCHAR g
ENCODING 103
SWIDTH 597 0
DWIDTH 20 0
BBX 19 20 3 -4
BITMAP
03e7e0
0fffc0
1fffc0
3c3e00
781e00
700e00
e00e00
e01c00
e01c00
e03c00
f03c00
70fc00
7ff800
3ff800
1f3800
003800
00f000
3ff000
3fc000
3f0000
ENDCHAR
STARTCHAR h
ENCODING 104
SWIDTH 597 0
DWIDTH 20 0
BBX 19 21 1 1
BITMAP
0fc000
1f8000
1f8000
038000
038000
038000
073f00
07ff80
07ffc0
07c1c0
0701c0
0e01c0
0e03c0
0e0380
0e0380
1c0380
1c0780
1c0700
ff3fe0
ff3fc0
ff3fc0
ENDCHAR
STARTCHAR i
ENCODING 105
SWIDTH 597 0
DWIDTH 20 0
BBX 15 22 3 1
BITMAP
0038
0038
0078
0078
0000
0000
0000
0ff0
0ff0
0ff0
00e0
00e0
00e0
00e0
01c0
01c0
01c0
01c0
03c0
fffe
fffe
fffe
ENDCHAR
STARTCHAR j
ENCODING 106
SWIDTH 597 0
DWIDTH 20 0
BBX 16 27 1 -4
BITMAP
0007
0007
000f
000f
0000
0000
0000
07ff
0fff
0fff
000e
000e
000e
000e
001e
001c
001c
001c
001c
003c
0038
0038
0078
20f0
7fe0
ffc0
3f00
ENDCHAR
STARTCHAR k
ENCODING 107
SWIDTH 597 0
DWIDTH 20 0
BBX 20 21 0 1
BITMAP
0fc000
0fc000
0fc000
01c000
018000
038000
038ff0
039ff0
031ff0
071f00
077c00
07f800
07e000
0ff000
0f7800
0e3c00
0e3c00
1e1e00
fc3fe0
fc3fc0
fc3fc0
ENDCHAR
STARTCHAR l
ENCODING 108
SWIDTH 597 0
DWIDTH 20 0
BBX 15 21 2 1
BITMAP
07f8
0ff8
0ff8
0830
0070
0070
0070
0070
00e0
00e0
00e0
00e0
01e0
01c0
01c0
01c0
01c0
03c0
fffe
fffe
fffe
ENDCHAR
STARTCHAR m
ENCODING 109
SWIDTH 597 0
DWIDTH 20 0
BBX 20 15 0 1
BITMAP
1f71e0
1ffff0
3ffff0
0f1e70
0e1c70
0e3870
0c3860
1c3860
1c3860
1c30e0
1870c0
3870c0
fe7cf0
fe7df0
fe79e0
ENDCHAR
STARTCHAR n
ENCODING 110
SWIDTH 597 0
DWIDTH 20 0
BBX 19 15 1 1
BITMAP
1f3f00
3fff80
3fffc0
07c1c0
0f01c0
0e03c0
0e03c0
0e0380
0c0380
1c0380
1c0780
1c0700
ff3fe0
ff3fc0
ff3fc0
ENDCHAR
STARTCHAR o
ENCODING 111
SWIDTH 597 0
DWIDTH 20 0
BBX 17 15 3 1
BITMAP
03f800
0ffe00
1fff00
3e0f80
780380
700380
e00380
e00380
e00780
e00700
e00f00
f03e00
7ffc00
3ff000
0fc000
ENDCHAR
STARTCHAR p
ENCODING 112
SWIDTH 597 0
DWIDTH 20 0
BBX 21 20 -1 -4
BITMAP
0fcf80
0fffe0
0ffff0
03f078
03c038
038038
030038
070038
070078
070070
0780f0
0fc3e0
0fffc0
0fff80
0e7e00
0c0000
1c0000
7fe000
ffe000
ffc000
ENDCHAR
STARTCHAR q
ENCODING 113
SWIDTH 597 0
DWIDTH 20 0
BBX 20 20 3 -4
BITMAP
03f3e0
0ffbe0
1fffe0
3c1f00
780f00
700700
e00700
e00e00
e00e00
e01e00
e03e00
f07c00
7ffc00
3ffc00
1f9c00
001c00
003800
07ff00
07ff00
07fe00
ENDCHAR
STARTCHAR r
ENCODING 114
SWIDTH 597 0
DWIDTH 20 0
BBX 19 15 2 1
BITMAP
1fcf80
1f9fc0
1fffe0
03f0e0
03e000
038000
030000
030000
070000
070000
070000
070000
fff800
fff800
fff800
ENDCHAR
STARTCHAR s
ENCODING 115
SWIDTH 597 0
DWIDTH 20 0
BBX 16 15 3 1
BITMAP
03f3
0fff
1fff
3c0e
380e
3c00
3ff0
1ffc
03fe
700e
700e
701e
fffc
fff8
e7e0
ENDCHAR
STARTCHAR t
ENCODING 116
SWIDTH 597 0
DWIDTH 20 0
BBX 13 19 5 1
BITMAP
0e00
0e00
0c00
1c00
7ff8
7ff8
fff8
1800
3800
3800
3800
3000
3000
7000
7008
7038
7ff8
3ff0
1f80
ENDCHAR
STARTCHAR u
ENCODING 117
SWIDTH 597 0
DWIDTH 20 0
BBX 16 15 3 1
BITMAP
7c3f
fc3f
fc3f
1c06
380e
380e
380e
380e
701c
701c
701c
707c
7fff
3fff
1f3f
ENDCHAR
STARTCHAR v
ENCODING 118
SWIDTH 597 0
DWIDTH 20 0
BBX 20 15 3 1
BITMAP
ff8ff0
ff8ff0
ff1ff0
1c0780
1e0700
1e0e00
0e1c00
0e3c00
0e3800
0f7000
07e000
07e000
07c000
078000
038000
ENDCHAR
STARTCHAR w
ENCODING 119
SWIDTH 597 0
DWIDTH 20 0
BBX 21 15 2 1
BITMAP
ff03f8
fe03f8
fe03f8
3870e0
38f1c0
38f1c0
39f380
3bf380
3bf700
3f7700
3f3e00
3e3e00
3e3c00
3c3c00
183800
ENDCHAR
STARTCHAR x
ENCODING 120
SWIDTH 597 0
DWIDTH 20 0
BBX 21 15 0 1
BITMAP
0fe3f8
1fe7f8
1fe7f8
03c3c0
01ef00
00fe00
007800
00f800
01fc00
03de00
078f00
1f0f00
ff1fe0
ff1fe0
ff1fe0
ENDCHAR
STARTCHAR y
ENCODING 121
SWIDTH 597 0
DWIDTH 20 0
BBX 19 20 3 -4
BITMAP
7f9fe0
ff1fe0
ff3fe0
380700
380600
380e00
780e00
780e00
700e00
701c00
703c00
78fc00
3ffc00
1ffc00
0fb800
003800
007800
7ff000
7fe000
7f8000
ENDCHAR
STARTCHAR z
ENCODING 122
SWIDTH 597 0
DWIDTH 20 0
BBX 17 15 3 1
BITMAP
1fff80
1fff80
1fff80
1c1e00
183c00
387800
00f000
03e000
078000
0f0e00
1e0e00
7c0e00
fffc00
fffc00
fffc00
ENDCHAR
STARTCHAR braceleft
ENCODING 123
SWIDTH 597 0
DWIDTH 20 0
BBX 11 25 9 -2
BITMAP
01e0
07e0
0fe0
1e00
1c00
1c00
1c00
1c00
1c00
1c00
3c00
f800
f000
f800
3800
3800
3000
7000
7000
e000
e000
e000
fc00
7c00
3c00
ENDCHAR
STARTCHAR bar
ENCODING 124
SWIDTH 597 0
DWIDTH 20 0
BBX 3 28 11 -5
BITMAP
e0
e0
e0
e0
e0
e0
e0
e0
e0
e0
e0
e0
e0
e0
e0
e0
e0
e0
e0
e0
e0
e0
e0
e0
e0
e0
e0
e0
ENDCHAR
STARTCHAR braceright
ENCODING 125
SWIDTH 597 0
DWIDTH 20 0
BBX 12 25 3 -2
BITMAP
0780
07c0
07e0
00e0
00e0
00e0
01e0
01c0
03c0
0380
0380
03f0
01e0
03e0
0780
0700
0700
0700
0700
0700
0700
0f00
7e00
7c00
f800
ENDCHAR
STARTCHAR asciitilde
ENCODING 126
SWIDTH 597 0
DWIDTH 20 0
BBX 15 6 5 8
BITMAP
0404
3f0c
7ffe
7ffc
71f8
6070
ENDCHAR
STARTCHAR space
ENCODING 160
SWIDTH 597 0
DWIDTH 20 0
BBX 0 0 0 1
BITMAP
ENDCHAR
STARTCHAR Aogonek
ENCODING 161
SWIDTH 597 0
DWIDTH 20 0
BBX 20 24 0 -4
BITMAP
01fe00
01fe00
01ff00
003f00
003700
007700
00e700
00c780
01c780
018380
03ff80
07ff80
07ffc0
0e01c0
1c01c0
1c01c0
ff0ff0
ff0ff0
ff1ff0
000f00
001c00
001fc0
001f80
000f00
ENDCHAR
STARTCHAR breve
ENCODING 162
SWIDTH 597 0
DWIDTH 20 0
BBX 12 6 8 17
BITMAP
e070
e0e0
71e0
7fe0
3fc0
1f00
ENDCHAR
STARTCHAR Lslash
ENCODING 163
SWIDTH 597 0
DWIDTH 20 0
BBX 19 19 1 1
BITMAP
0ffc00
0ffc00
0ffc00
018000
038200
038e00
03be00
03f800
07e000
1fc000
3f00e0
3f00e0
2e01c0
0e01c0
0e01c0
0e01c0
ffff80
ffff80
ffff80
ENDCHAR
STARTCHAR currency
ENCODING 164
SWIDTH 597 0
DWIDTH 20 0
BBX 16 16 4 3
BITMAP
2002
6006
f3cf
7ffe
3ffc
1c38
381c
381c
381c
381c
3c3c
1c38
3ffc
7ffe
f3cf
6006
ENDCHAR
STARTCHAR Lcaron
ENCODING 165
SWIDTH 597 0
DWIDTH 20 0
BBX 23 21 1 1
BITMAP
00007c
0000f0
0ffdc0
0ffc00
0ffc00
018000
038000
038000
038000
038000
070000
070000
0700e0
0700e0
0601c0
0e01c0
0e01c0
0e01c0
ffff80
ffff80
ffff80
ENDCHAR
STARTCHAR Sacute
ENCODING 166
SWIDTH 597 0
DWIDTH 20 0
BBX 19 25 2 1
BITMAP
000f80
001e00
003800
000000
000000
000000
00fcc0
03fee0
07ffe0
0f03c0
0e03c0
0e0380
0e0180
0f0000
07f800
03fe00
00fe00
000f00
700700
700700
700f00
781e00
fffe00
effc00
c7f000
ENDCHAR
STARTCHAR section
ENCODING 167
SWIDTH 597 0
DWIDTH 20 0
BBX 17 22 3 -2
BITMAP
00ff80
01ff80
03ff00
038700
038700
038000
07c000
0ff000
1cf800
1c7c00
1c3c00
0e1e00
070e00
03de00
03fc00
01f800
78f000
707000
70f000
7fe000
ffc000
ff8000
ENDCHAR
STARTCHAR dieresis
ENCODING 168
SWIDTH 597 0
DWIDTH 20 0
BBX 9 4 9 19
BITMAP
7380
7380
f780
e700
ENDCHAR
STARTCHAR Scaron
ENCODING 169
SWIDTH 597 0
DWIDTH 20 0
BBX 19 26 2 1
BITMAP
006300
00ff80
007e00
003c00
000000
000000
000000
00fcc0
03fee0
07ffe0
0f03c0
0e03c0
0e0380
0e0180
0f0000
07f800
03fe00
00fe00
000f00
700700
700700
700f00
781e00
fffe00
effc00
c7f000
ENDCHAR
STARTCHAR Scedilla
ENCODING 170
SWIDTH 597 0
DWIDTH 20 0
BBX 19 25 2 -5
BITMAP
00fcc0
03fee0
07ffe0
0f03c0
0e03c0
0e0380
0e0180
0f8000
07f800
03fe00
00ff00
000f00
700700
700700
700f00
781e00
fffe00
fffc00
c7e000
03c000
03e000
03e000
1fe000
1fc000
078000
ENDCHAR
STARTCHAR Tcaron
ENCODING 171
SWIDTH 597 0
DWIDTH 20 0
BBX 19 26 3 1
BITMAP
00c600
01ff00
00fc00
007800
000000
000000
000000
3fffe0
3fffe0
3fffe0
70e0e0
70e1c0
70e1c0
e0e1c0
e0e1c0
01c000
01c000
01c000
01c000
038000
038000
038000
038000
3ff800
7ff000
7ff000
ENDCHAR
STARTCHAR Zacute
ENCODING 172
SWIDTH 597 0
DWIDTH 20 0
BBX 18 25 2 1
BITMAP
000f80
001e00
003800
000000
000000
000000
0fffc0
0fffc0
0fffc0
0c0780
1c0f00
1c1e00
1c3c00
007800
00f000
01e000
03c000
078700
0f0700
1e0700
3c0700
780600
fffe00
fffe00
fffe00
ENDCHAR
STARTCHAR hyphen
ENCODING 173
SWIDTH 597 0
DWIDTH 20 0
BBX 7 3 9 9
BITMAP
fe
fe
fe
ENDCHAR
STARTCHAR Zcaron
ENCODING 174
SWIDTH 597 0
DWIDTH 20 0
BBX 18 26 2 1
BITMAP
006300
00ff80
007e00
003c00
000000
000000
000000
0fffc0
0fffc0
0fffc0
0c0780
1c0f00
1c1e00
1c3c00
007800
00f000
01e000
03c000
078700
0f0700
1e0700
3c0700
780600
fffe00
fffe00
fffe00
ENDCHAR
STARTCHAR Zdotaccent
ENCODING 175
SWIDTH 597 0
DWIDTH 20 0
BBX 18 26 2 1
BITMAP
000e00
000e00
001c00
001c00
000000
000000
000000
0fffc0
0fffc0
0fffc0
0c0780
1c0f00
1c1e00
1c3c00
007800
00f000
01e000
03c000
078700
0f0700
1e0700
3c0700
780600
fffe00
fffe00
fffe00
ENDCHAR
STARTCHAR degree
ENCODING 176
SWIDTH 597 0
DWIDTH 20 0
BBX 10 10 7 12
BITMAP
1e00
7f80
7f80
f1c0
e1c0
e1c0
e1c0
7f80
7f80
1e00
ENDCHAR
STARTCHAR aogonek
ENCODING 177
SWIDTH 597 0
DWIDTH 20 0
BBX 17 20 2 -4
BITMAP
01fc00
0ffe00
0fff00
080700
000700
07ff00
1fff00
3ffe00
780e00
f00e00
e01e00
e07c00
ffff80
7fff80
1f3f00
007800
00e000
00fe00
00fc00
007800
ENDCHAR
STARTCHAR ogonek
ENCODING 178
SWIDTH 597 0
DWIDTH 20 0
BBX 7 6 6 -4
BITMAP
0e
78
e0
fc
fc
78
ENDCHAR
STARTCHAR lslash
ENCODING 179
SWIDTH 597 0
DWIDTH 20 0
BBX 16 21 3 1
BITMAP
07f0
0ff0
0ff0
0870
0060
0060
00e2
00ef
00ff
00fc
03f0
0fc0
3fc0
1dc0
1180
0180
0380
0380
fffc
fffc
fffc
ENDCHAR
STARTCHAR acute
ENCODING 180
SWIDTH 597 0
DWIDTH 20 0
BBX 9 3 10 19
BITMAP
1f00
3c00
7000
ENDCHAR
STARTCHAR lcaron
ENCODING 181
SWIDTH 597 0
DWIDTH 20 0
BBX 22 21 2 1
BITMAP
07f8f8
0ff9e0
0ffb80
083000
007000
007000
007000
007000
00e000
00e000
00e000
00e000
01e000
01c000
01c000
01c000
01c000
03c000
fffe00
fffe00
fffe00
ENDCHAR
STARTCHAR sacute
ENCODING 182
SWIDTH 597 0
DWIDTH 20 0
BBX 16 21 3 1
BITMAP
003e
0078
00e0
0000
0000
0000
03f3
0fff
1fff
3c0e
380e
3c00
3ff0
1ffc
03fe
700e
700e
701e
fffc
fff8
e7e0
ENDCHAR
STARTCHAR caron
ENCODING 183
SWIDTH 597 0
DWIDTH 20 0
BBX 9 6 9 17
BITMAP
4100
e380
7700
7e00
3e00
3c00
ENDCHAR
STARTCHAR cedilla
ENCODING 184
SWIDTH 597 0
DWIDTH 20 0
BBX 8 7 5 -5
BITMAP
0c
0e
1f
1f
7f
fe
7c
ENDCHAR
STARTCHAR scaron
ENCODING 185
SWIDTH 597 0
DWIDTH 20 0
BBX 16 22 3 1
BITMAP
0104
038e
01dc
01f8
00f8
00f0
0000
03f3
0fff
1fff
3c0e
380e
3c00
3ff0
1ffc
03fe
700e
700e
701e
fffc
fff8
e7e0
ENDCHAR
STARTCHAR scedilla
ENCODING 186
SWIDTH 597 0
DWIDTH 20 0
BBX 16 21 3 -5
BITMAP
03e3
0fff
1fff
3c0e
380e
3c00
3ff0
1ffc
07fe
700e
700e
701e
fffc
fff8
efc0
0380
03c0
07c0
1fc0
1fc0
0780
ENDCHAR
STARTCHAR tcaron
ENCODING 187
SWIDTH 597 0
DWIDTH 20 0
BBX 16 21 5 1
BITMAP
003e
0078
0ee0
0e00
0c00
1c00
7ff8
7ff8
fff8
1800
3800
3800
3800
3000
3000
7000
7008
7038
7ff8
3ff0
1f80
ENDCHAR
STARTCHAR zacute
ENCODING 188
SWIDTH 597 0
DWIDTH 20 0
BBX 17 21 3 1
BITMAP
003e00
007800
00e000
000000
000000
000000
1fff80
1fff80
1fff80
1c1e00
183c00
387800
00f000
03e000
078000
0f0e00
1e0e00
7c0e00
fffc00
fffc00
fffc00
ENDCHAR
STARTCHAR hungarumlaut
ENCODING 189
SWIDTH 597 0
DWIDTH 20 0
BBX 14 4 8 19
BITMAP
0f38
1cf0
39c0
6380
ENDCHAR
STARTCHAR zcaron
ENCODING 190
SWIDTH 597 0
DWIDTH 20 0
BBX 17 22 3 1
BITMAP
010400
038e00
01dc00
01f800
00f800
00f000
000000
1fff80
1fff80
1fff80
1c1e00
183c00
387800
00f000
03e000
078000
0f0e00
1e0e00
7c0e00
fffc00
fffc00
fffc00
ENDCHAR
STARTCHAR zdotaccent
ENCODING 191
SWIDTH 597 0
DWIDTH 20 0
BBX 17 22 3 1
BITMAP
003800
003800
007000
007000
000000
000000
000000
1fff80
1fff80
1fff80
1c1e00
183c00
387800
00f000
03e000
078000
0f0e00
1e0e00
7c0e00
fffc00
fffc00
fffc00
ENDCHAR
STARTCHAR Racute
ENCODING 192
SWIDTH 597 0
DWIDTH 20 0
BBX 19 25 1 1
BITMAP
0007c0
000f00
001c00
000000
000000
000000
0fff80
0fffc0
1fffe0
0380e0
0380e0
0700e0
0701e0
0703c0
07ff80
07ff00
0ff800
0e3c00
0e1c00
0e1e00
1c0e00
1c0e00
ff8fe0
ff87e0
ff07e0
ENDCHAR
STARTCHAR Aacute
ENCODING 193
SWIDTH 597 0
DWIDTH 20 0
BBX 20 25 0 1
BITMAP
0003e0
000780
000e00
000000
000000
000000
01fe00
01fe00
01fe00
003f00
003700
007700
00e700
00e700
01c380
03c380
03ff80
07ff80
07ff80
0e01c0
1c01c0
1c01c0
ff0ff0
ff0ff0
ff0ff0
ENDCHAR
STARTCHAR Acircumflex
ENCODING 194
SWIDTH 597 0
DWIDTH 20 0
BBX 20 26 0 1
BITMAP
000f00
001f80
003fc0
003180
000000
000000
000000
01fe00
01fe00
01fe00
003f00
003700
007700
00e700
00e700
01c380
03c380
03ff80
07ff80
07ff80
0e01c0
1c01c0
1c01c0
ff0ff0
ff0ff0
ff0ff0
ENDCHAR
STARTCHAR Abreve
ENCODING 195
SWIDTH 597 0
DWIDTH 20 0
BBX 20 26 0 1
BITMAP
00e070
00f0e0
007fe0
003fc0
001f00
000000
000000
01fe00
01fe00
01fe00
003f00
003700
007700
00e700
00e700
01c380
03c380
03ff80
07ff80
07ff80
0e01c0
1c01c0
1c01c0
ff0ff0
ff0ff0
ff0ff0
ENDCHAR
STARTCHAR Adieresis
ENCODING 196
SWIDTH 597 0
DWIDTH 20 0
BBX 20 26 0 1
BITMAP
001ce0
001ce0
003de0
0039c0
000000
000000
000000
01fe00
01fe00
01fe00
003f00
003700
007700
00e700
00e700
01c380
03c380
03ff80
07ff80
07ff80
0e01c0
1c01c0
1c01c0
ff0ff0
ff0ff0
ff0ff0
ENDCHAR
STARTCHAR Lacute
ENCODING 197
SWIDTH 597 0
DWIDTH 20 0
BBX 19 25 1 1
BITMAP
007c00
00f000
01c000
000000
000000
000000
0ffc00
0ffc00
0ffc00
018000
038000
038000
038000
038000
070000
070000
0700e0
0700e0
0601c0
0e01c0
0e01c0
0e01c0
ffff80
ffff80
ffff80
ENDCHAR
STARTCHAR Cacute
ENCODING 198
SWIDTH 597 0
DWIDTH 20 0
BBX 20 25 3 1
BITMAP
001f00
003c00
007000
000000
000000
000000
00fc40
03fe60
07ffe0
1f83c0
3e01c0
3c01c0
7801c0
700000
f00000
e00000
e00000
e00000
e00000
e00000
f00200
780f00
3fff80
1ffe00
07f800
ENDCHAR
STARTCHAR Ccedilla
ENCODING 199
SWIDTH 597 0
DWIDTH 20 0
BBX 20 25 3 -5
BITMAP
00fc40
03fee0
07ffe0
1f83c0
1e01c0
3c01c0
7801c0
700000
f00000
e00000
e00000
e00000
e00000
e00000
f00200
780f00
7fff80
3ffe00
0ff000
038000
01e000
03e000
0fe000
1fe000
0fc000
ENDCHAR
STARTCHAR Ccaron
ENCODING 200
SWIDTH 597 0
DWIDTH 20 0
BBX 20 26 3 1
BITMAP
00c600
01ff00
00fc00
007800
000000
000000
000000
00fc40
03fe60
07ffe0
1f83c0
3e01c0
3c01c0
7801c0
700000
f00000
e00000
e00000
e00000
e00000
e00000
f00200
780f00
3fff80
1ffe00
07f800
ENDCHAR
STARTCHAR Eacute
ENCODING 201
SWIDTH 597 0
DWIDTH 20 0
BBX 21 25 1 1
BITMAP
0007c0
000f00
001c00
000000
000000
000000
0ffff8
0ffff8
0ffff8
038070
038070
038770
070e70
07fe00
07fe00
07fe00
070e00
0f1c00
0e1ce0
0e01c0
0e01c0
1c01c0
ffffc0
ffffc0
ffff80
ENDCHAR
STARTCHAR Eogonek
ENCODING 202
SWIDTH 597 0
DWIDTH 20 0
BBX 21 24 1 -4
BITMAP
0ffff8
0ffff8
0ffff0
038070
038070
038670
038670
03fe00
07fe00
07fe00
070c00
060c00
0e0ce0
0e01c0
0e01c0
0e01c0
7fffc0
7fff80
ffff80
001e00
003800
003f00
003f00
001c00
ENDCHAR
STARTCHAR Edieresis
ENCODING 203
SWIDTH 597 0
DWIDTH 20 0
BBX 21 26 1 1
BITMAP
0039c0
0039c0
007bc0
007380
000000
000000
000000
0ffff8
0ffff8
0ffff8
038070
038070
038770
070e70
07fe00
07fe00
07fe00
070e00
0f1c00
0e1ce0
0e01c0
0e01c0
1c01c0
ffffc0
ffffc0
ffff80
ENDCHAR
STARTCHAR Ecaron
ENCODING 204
SWIDTH 597 0
DWIDTH 20 0
BBX 21 26 1 1
BITMAP
003180
007fc0
003f00
001e00
000000
000000
000000
0ffff8
0ffff8
0ffff8
038070
038070
038770
070e70
07fe00
07fe00
07fe00
070e00
0f1c00
0e1ce0
0e01c0
0e01c0
1c01c0
ffffc0
ffffc0
ffff80
ENDCHAR
STARTCHAR Iacute
ENCODING 205
SWIDTH 597 0
DWIDTH 20 0
BBX 18 25 3 1
BITMAP
001f00
003c00
007000
000000
000000
000000
0fffc0
0fffc0
0fffc0
007000
006000
00e000
00e000
00e000
00e000
00c000
01c000
01c000
01c000
018000
038000
038000
fffc00
fffc00
fffc00
ENDCHAR
STARTCHAR Icircumflex
ENCODING 206
SWIDTH 597 0
DWIDTH 20 0
BBX 18 26 3 1
BITMAP
003c00
007e00
00ff00
00c600
000000
000000
000000
0fffc0
0fffc0
0fffc0
007000
006000
00e000
00e000
00e000
00e000
00c000
01c000
01c000
01c000
018000
038000
038000
fffc00
fffc00
fffc00
ENDCHAR
STARTCHAR Dcaron
ENCODING 207
SWIDTH 597 0
DWIDTH 20 0
BBX 20 26 1 1
BITMAP
006300
00ff80
007e00
003c00
000000
000000
000000
0fff00
1fffc0
1fffe0
0700e0
0700f0
070070
070070
070070
0e0070
0e00f0
0e00e0
0e00e0
1c01c0
1c03c0
1c0380
1c0f80
ffff00
fffc00
fff000
ENDCHAR
STARTCHAR Eth
ENCODING 208
SWIDTH 597 0
DWIDTH 20 0
BBX 20 19 1 1
BITMAP
0fff00
1fffc0
1fffe0
0700e0
0700f0
070070
070070
070070
3ff870
3ff8f0
7ff0e0
0e00e0
0e01c0
1c03c0
1c0380
1c0f80
ffff00
fffc00
fff000
ENDCHAR
STARTCHAR Nacute
ENCODING 209
SWIDTH 597 0
DWIDTH 20 0
BBX 23 25 0 1
BITMAP
0003e0
000780
000e00
000000
000000
000000
0fc1fe
0fc1fe
1fe1fe
03e070
07e070
077070
077070
063060
0e38e0
0e38e0
0e18e0
0e1ce0
0c1cc0
1c0dc0
1c0fc0
1c0fc0
ff8780
ff0780
ff0780
ENDCHAR
STARTCHAR Ncaron
ENCODING 210
SWIDTH 597 0
DWIDTH 20 0
BBX 23 26 0 1
BITMAP
0018c0
003fe0
001f80
000f00
000000
000000
000000
0fc1fe
0fc1fe
1fe1fe
03e070
07e070
077070
077070
063060
0e38e0
0e38e0
0e18e0
0e1ce0
0c1cc0
1c0dc0
1c0fc0
1c0fc0
ff8780
ff0780
ff0780
ENDCHAR
STARTCHAR Oacute
ENCODING 211
SWIDTH 597 0
DWIDTH 20 0
BBX 18 25 3 1
BITMAP
001f00
003c00
007000
000000
000000
000000
00fc00
07ff00
0fff80
1f0780
3c03c0
3801c0
7801c0
7001c0
f001c0
e001c0
e00380
e00380
e00780
e00f00
f01e00
783e00
7ff800
3ff000
0fc000
ENDCHAR
STARTCHAR Ocircumflex
ENCODING 212
SWIDTH 597 0
DWIDTH 20 0
BBX 18 26 3 1
BITMAP
003c00
007e00
00ff00
00c600
000000
000000
000000
00fc00
07ff00
0fff80
1f0780
3c03c0
3801c0
7801c0
7001c0
f001c0
e001c0
e00380
e00380
e00780
e00f00
f01e00
783e00
7ff800
3ff000
0fc000
ENDCHAR
STARTCHAR Ohungarumlaut
ENCODING 213
SWIDTH 597 0
DWIDTH 20 0
BBX 20 26 3 1
BITMAP
003ce0
0073c0
00e700
018e00
000000
000000
000000
00fc00
07ff00
0fff80
1f0780
3c03c0
3801c0
7801c0
7001c0
f001c0
e001c0
e00380
e00380
e00780
e00f00
f01e00
783e00
7ff800
3ff000
0fc000
ENDCHAR
STARTCHAR Odieresis
ENCODING 214
SWIDTH 597 0
DWIDTH 20 0
BBX 18 26 3 1
BITMAP
00e700
00e700
01ef00
01ce00
000000
000000
000000
00fc00
07ff00
0fff80
1f0780
3c03c0
3801c0
7801c0
7001c0
f001c0
e001c0
e00380
e00380
e00780
e00f00
f01e00
783e00
7ff800
3ff000
0fc000
ENDCHAR
STARTCHAR multiply
ENCODING 215
SWIDTH 597 0
DWIDTH 20 0
BBX 13 13 6 5
BITMAP
4030
e070
7878
3cf0
1fe0
0f80
0700
0f80
1fc0
39e0
78f0
f078
6010
ENDCHAR
STARTCHAR Rcaron
ENCODING 216
SWIDTH 597 0
DWIDTH 20 0
BBX 19 26 1 1
BITMAP
003180
007fc0
003f00
001e00
000000
000000
000000
0fff80
0fffc0
1fffe0
0380e0
0380e0
0700e0
0701e0
0703c0
07ff80
07ff00
0ff800
0e3c00
0e1c00
0e1e00
1c0e00
1c0e00
ff8fe0
ff87e0
ff07e0
ENDCHAR
STARTCHAR Uring
ENCODING 217
SWIDTH 597 0
DWIDTH 20 0
BBX 19 28 4 1
BITMAP
00e000
01f000
03f800
03b800
03f800
01f000
00e000
000000
000000
ff9fe0
ff9fe0
ffbfe0
380300
380700
380700
700700
700700
700e00
700e00
700e00
e00e00
e00c00
e01c00
e01c00
e07800
fff000
7fe000
1f8000
ENDCHAR
STARTCHAR Uacute
ENCODING 218
SWIDTH 597 0
DWIDTH 20 0
BBX 19 25 4 1
BITMAP
003e00
007800
00e000
000000
000000
000000
ff9fe0
ff9fe0
ffbfe0
380300
380700
380700
700700
700700
700e00
700e00
700e00
e00e00
e00c00
e01c00
e01c00
e07800
fff000
7fe000
1f8000
ENDCHAR
STARTCHAR Uhungarumlaut
ENCODING 219
SWIDTH 597 0
DWIDTH 20 0
BBX 19 26 4 1
BITMAP
0079c0
00e780
01ce00
031c00
000000
000000
000000
ff9fe0
ff9fe0
ffbfe0
380300
380700
380700
700700
700700
700e00
700e00
700e00
e00e00
e00c00
e01c00
e01c00
e07800
fff000
7fe000
1f8000
ENDCHAR
STARTCHAR Udieresis
ENCODING 220
SWIDTH 597 0
DWIDTH 20 0
BBX 19 26 4 1
BITMAP
01ce00
01ce00
03de00
039c00
000000
000000
000000
ff9fe0
ff9fe0
ffbfe0
380300
380700
380700
700700
700700
700e00
700e00
700e00
e00e00
e00c00
e01c00
e01c00
e07800
fff000
7fe000
1f8000
ENDCHAR
STARTCHAR Yacute
ENCODING 221
SWIDTH 597 0
DWIDTH 20 0
BBX 19 25 4 1
BITMAP
003e00
007800
00e000
000000
000000
000000
ff1fe0
ff1fe0
ff1fe0
1c0f00
1c1e00
1e1c00
0e3800
0e7000
07e000
07e000
03c000
038000
038000
070000
070000
070000
7fe000
7fe000
7fe000
ENDCHAR
STARTCHAR Tcedilla
ENCODING 222
SWIDTH 597 0
DWIDTH 20 0
BBX 19 25 3 -5
BITMAP
3fffe0
3fffe0
3fffe0
70e0e0
70e1c0
70e1c0
e0e1c0
e0e1c0
01c000
01c000
01c000
01c000
038000
038000
038000
038000
3ff800
7ff000
7ff000
038000
03c000
07c000
1fc000
3f8000
0f0000
ENDCHAR
STARTCHAR germandbls
ENCODING 223
SWIDTH 597 0
DWIDTH 20 0
BBX 18 22 1 1
BITMAP
003e00
007f80
00ff80
01e3c0
03c1c0
0381c0
0383c0
030380
070f00
073e00
077e00
077f00
0e0f80
0e0780
0e0380
0e0380
0c0380
1c0780
1c0f00
7cff00
7dfe00
78f800
ENDCHAR
STARTCHAR racute
ENCODING 224
SWIDTH 597 0
DWIDTH 20 0
BBX 19 21 2 1
BITMAP
001f00
003c00
007000
000000
000000
000000
1fcf80
1f9fc0
1fffe0
03f0e0
03e000
038000
030000
030000
070000
070000
070000
070000
fff800
fff800
fff800
ENDCHAR
STARTCHAR aacute
ENCODING 225
SWIDTH 597 0
DWIDTH 20 0
BBX 17 21 2 1
BITMAP
001f00
003c00
007000
000000
000000
000000
01fc00
0ffe00
0fff00
080700
000700
07ff00
1ffe00
3ffe00
7c0e00
f00e00
e01e00
e07c00
ffff80
7fff80
1f1f00
ENDCHAR
STARTCHAR acircumflex
ENCODING 226
SWIDTH 597 0
DWIDTH 20 0
BBX 17 22 2 1
BITMAP
003c00
007e00
00fe00
01c700
000000
000000
000000
01fc00
0ffe00
0fff00
080700
000700
07ff00
1ffe00
3ffe00
7c0e00
f00e00
e01e00
e07c00
ffff80
7fff80
1f1f00
ENDCHAR
STARTCHAR abreve
ENCODING 227
SWIDTH 597 0
DWIDTH 20 0
BBX 18 22 2 1
BITMAP
0381c0
038380
01c780
01ff80
00ff00
007c00
000000
01fc00
0ffe00
0fff00
080700
000700
07ff00
1ffe00
3ffe00
7c0e00
f00e00
e01e00
e07c00
ffff80
7fff80
1f1f00
ENDCHAR
STARTCHAR adieresis
ENCODING 228
SWIDTH 597 0
DWIDTH 20 0
BBX 17 22 2 1
BITMAP
00e700
00e700
01ef00
01ce00
000000
000000
000000
01fc00
0ffe00
0fff00
080700
000700
07ff00
1ffe00
3ffe00
7c0e00
f00e00
e01e00
e07c00
ffff80
7fff80
1f1f00
ENDCHAR
STARTCHAR lacute
ENCODING 229
SWIDTH 597 0
DWIDTH 20 0
BBX 17 27 2 1
BITMAP
001f00
003c00
007000
000000
000000
000000
07f800
0ff800
0ff800
083000
007000
007000
007000
007000
00e000
00e000
00e000
00e000
01e000
01c000
01c000
01c000
01c000
03c000
fffe00
fffe00
fffe00
ENDCHAR
STARTCHAR cacute
ENCODING 230
SWIDTH 597 0
DWIDTH 20 0
BBX 17 21 3 1
BITMAP
003e00
007800
00e000
000000
000000
000000
01f180
07ff80
1fff80
3e0700
780700
700700
f00000
e00000
e00000
e00000
e00400
701e00
7ffe00
3ff800
0fe000
ENDCHAR
STARTCHAR ccedilla
ENCODING 231
SWIDTH 597 0
DWIDTH 20 0
BBX 17 21 3 -5
BITMAP
01f980
07ff80
1fff80
3e0700
380700
700700
f00000
e00000
e00000
e00000
e00400
701e00
7cfe00
3ff800
0fe000
038000
03e000
07e000
1fe000
3fc000
078000
ENDCHAR
STARTCHAR ccaron
ENCODING 232
SWIDTH 597 0
DWIDTH 20 0
BBX 17 22 3 1
BITMAP
010400
038e00
01dc00
01f800
00f800
00f000
000000
01f180
07ff80
1fff80
3e0700
780700
700700
f00000
e00000
e00000
e00000
e00400
701e00
7ffe00
3ff800
0fe000
ENDCHAR
STARTCHAR eacute
ENCODING 233
SWIDTH 597 0
DWIDTH 20 0
BBX 17 21 3 1
BITMAP
003e00
007800
00e000
000000
000000
000000
01f800
07fe00
1fff00
3e0f80
780780
700380
ffff80
ffff80
ffff80
e00000
f00200
f80f00
7fff00
3ffc00
0fe000
ENDCHAR
STARTCHAR eogonek
ENCODING 234
SWIDTH 597 0
DWIDTH 20 0
BBX 17 20 3 -4
BITMAP
01f800
07fe00
1fff00
3e0f80
7c0780
780380
ffff80
ffff80
ffff00
e00000
e00200
700e00
7e7f00
3ffe00
0fe000
078000
0e0000
0fc000
0fc000
078000
ENDCHAR
STARTCHAR edieresis
ENCODING 235
SWIDTH 597 0
DWIDTH 20 0
BBX 17 22 3 1
BITMAP
01ce00
01ce00
03de00
039c00
000000
000000
000000
01f800
07fe00
1fff00
3e0f80
780780
700380
ffff80
ffff80
ffff80
e00000
f00200
f80f00
7fff00
3ffc00
0fe000
ENDCHAR
STARTCHAR ecaron
ENCODING 236
SWIDTH 597 0
DWIDTH 20 0
BBX 17 22 3 1
BITMAP
010400
038e00
01dc00
01f800
00f800
00f000
000000
01f800
07fe00
1fff00
3e0f80
780780
700380
ffff80
ffff80
ffff80
e00000
f00200
f80f00
7fff00
3ffc00
0fe000
ENDCHAR
STARTCHAR iacute
ENCODING 237
SWIDTH 597 0
DWIDTH 20 0
BBX 16 21 3 1
BITMAP
003e
0078
00e0
0000
0000
0000
0ff0
0ff0
0ff0
00e0
00e0
00e0
00e0
01c0
01c0
01c0
01c0
03c0
fffe
fffe
fffe
ENDCHAR
STARTCHAR icircumflex
ENCODING 238
SWIDTH 597 0
DWIDTH 20 0
BBX 15 22 3 1
BITMAP
0078
00fc
01fc
038e
0000
0000
0000
0ff0
0ff0
0ff0
00e0
00e0
00e0
00e0
01c0
01c0
01c0
01c0
03c0
fffe
fffe
fffe
ENDCHAR
STARTCHAR dcaron
ENCODING 239
SWIDTH 597 0
DWIDTH 20 0
BBX 26 21 3 1
BITMAP
003fcf80
003fde00
007ff800
00038000
00038000
00038000
03f38000
0ffb8000
1fff0000
3c1f0000
780f0000
700f0000
e00e0000
e00e0000
e00e0000
e01e0000
e03e0000
f07c0000
7fff8000
3fff8000
1f9f0000
ENDCHAR
STARTCHAR dbar
ENCODING 240
SWIDTH 597 0
DWIDTH 20 0
BBX 20 21 3 1
BITMAP
003fc0
003fc0
007b80
03ffc0
03fff0
003fe0
03e380
0fff00
1fff00
3c3f00
781f00
700e00
700e00
e00e00
e00e00
e01e00
e03c00
f07c00
7fff80
3fff00
1f9f00
ENDCHAR
STARTCHAR nacute
ENCODING 241
SWIDTH 597 0
DWIDTH 20 0
BBX 19 21 1 1
BITMAP
000f80
001e00
003800
000000
000000
000000
1f3f00
3fff80
3fffc0
07c1c0
0f01c0
0e03c0
0e03c0
0e0380
0c0380
1c0380
1c0780
1c0700
ff3fe0
ff3fc0
ff3fc0
ENDCHAR
STARTCHAR ncaron
ENCODING 242
SWIDTH 597 0
DWIDTH 20 0
BBX 19 22 1 1
BITMAP
004100
00e380
007700
007e00
003e00
003c00
000000
1f3f00
3fff80
3fffc0
07c1c0
0f01c0
0e03c0
0e03c0
0e0380
0c0380
1c0380
1c0780
1c0700
ff3fe0
ff3fc0
ff3fc0
ENDCHAR
STARTCHAR oacute
ENCODING 243
SWIDTH 597 0
DWIDTH 20 0
BBX 17 21 3 1
BITMAP
003e00
007800
00e000
000000
000000
000000
03f800
0ffe00
1fff00
3e0f80
780380
700380
e00380
e00380
e00780
e00700
e00f00
f03e00
7ffc00
3ff000
0fc000
ENDCHAR
STARTCHAR ocircumflex
ENCODING 244
SWIDTH 597 0
DWIDTH 20 0
BBX 17 22 3 1
BITMAP
007800
00fc00
01fc00
038e00
000000
000000
000000
03f800
0ffe00
1fff00
3e0f80
780380
700380
e00380
e00380
e00780
e00700
e00f00
f03e00
7ffc00
3ff000
0fc000
ENDCHAR
STARTCHAR ohungarumlaut
ENCODING 245
SWIDTH 597 0
DWIDTH 20 0
BBX 19 22 3 1
BITMAP
0079c0
00e780
01ce00
031c00
000000
000000
000000
03f800
0ffe00
1fff00
3e0f80
780380
700380
e00380
e00380
e00780
e00700
e00f00
f03e00
7ffc00
3ff000
0fc000
ENDCHAR
STARTCHAR odieresis
ENCODING 246
SWIDTH 597 0
DWIDTH 20 0
BBX 17 22 3 1
BITMAP
01ce00
01ce00
03de00
039c00
000000
000000
000000
03f800
0ffe00
1fff00
3e0f80
780380
700380
e00380
e00380
e00780
e00700
e00f00
f03e00
7ffc00
3ff000
0fc000
ENDCHAR
STARTCHAR divide
ENCODING 247
SWIDTH 597 0
DWIDTH 20 0
BBX 16 15 4 4
BITMAP
0180
03c0
03c0
0380
0000
0000
ffff
ffff
ffff
0000
0000
0180
03c0
03c0
0380
ENDCHAR
STARTCHAR rcaron
ENCODING 248
SWIDTH 597 0
DWIDTH 20 0
BBX 19 22 2 1
BITMAP
008200
01c700
00ee00
00fc00
007c00
007800
000000
1fcf80
1f9fc0
1fffe0
03f0e0
03e000
038000
030000
030000
070000
070000
070000
070000
fff800
fff800
fff800
ENDCHAR
STARTCHAR uring
ENCODING 249
SWIDTH 597 0
DWIDTH 20 0
BBX 16 23 3 1
BITMAP
00f0
01f8
03f8
03b8
01f8
01f0
0060
0000
7c3f
fc3f
fc3f
1c06
380e
380e
380e
380e
701c
701c
701c
707c
7fff
3fff
1f3f
ENDCHAR
STARTCHAR uacute
ENCODING 250
SWIDTH 597 0
DWIDTH 20 0
BBX 16 21 3 1
BITMAP
003e
0078
00e0
0000
0000
0000
7c3f
fc3f
fc3f
1c06
380e
380e
380e
380e
701c
701c
701c
707c
7fff
3fff
1f3f
ENDCHAR
STARTCHAR uhungarumlaut
ENCODING 251
SWIDTH 597 0
DWIDTH 20 0
BBX 19 22 3 1
BITMAP
0079c0
00e780
01ce00
031c00
000000
000000
000000
7c3f00
fc3f00
fc3f00
1c0600
380e00
380e00
380e00
380e00
701c00
701c00
701c00
707c00
7fff00
3fff00
1f3f00
ENDCHAR
STARTCHAR udieresis
ENCODING 252
SWIDTH 597 0
DWIDTH 20 0
BBX 16 22 3 1
BITMAP
01ce
01ce
03de
039c
0000
0000
0000
7c3f
fc3f
fc3f
1c06
380e
380e
380e
380e
701c
701c
701c
707c
7fff
3fff
1f3f
ENDCHAR
STARTCHAR yacute
ENCODING 253
SWIDTH 597 0
DWIDTH 20 0
BBX 19 26 3 -4
BITMAP
003e00
007800
00e000
000000
000000
000000
7f9fe0
ff1fe0
ff3fe0
380700
380600
380e00
780e00
780e00
700e00
701c00
703c00
78fc00
3ffc00
1ffc00
0fb800
003800
007800
7ff000
7fe000
7f8000
ENDCHAR
STARTCHAR tcedilla
ENCODING 254
SWIDTH 597 0
DWIDTH 20 0
BBX 13 25 5 -5
BITMAP
0e00
0e00
0c00
1c00
7ff8
7ff8
fff8
1800
3800
3800
3800
3000
3000
7000
7008
7018
79f8
3ff8
1fc0
0700
0f80
0f80
3f80
7f00
1e00
ENDCHAR
STARTCHAR dotaccent
ENCODING 255
SWIDTH 597 0
DWIDTH 20 0
BBX 4 4 12 19
BITMAP
70
70
e0
e0
ENDCHAR
ENDFONT
